<?xml version="1.0" encoding="UTF-8"?>
<svg width="271px" height="43px" viewBox="0 0 271 43" version="1.1" xmlns="http://www.w3.org/2000/svg" xmlns:xlink="http://www.w3.org/1999/xlink">
    <!-- Generator: Sketch 49.3 (51167) - http://www.bohemiancoding.com/sketch -->
    <title>lettering</title>
    <desc>Created with Sketch.</desc>
    <defs></defs>
    <g id="Page-1" stroke="none" stroke-width="1" fill="none" fill-rule="evenodd">
        <g id="lettering">
            <path d="M86.9839902,10.7284483 C92.515627,10.7284483 95.281404,14.1738161 95.281404,21.0646552 L95.281404,33.7241379 C95.281404,34.3879344 95.0759462,34.9331875 94.6650246,35.3599138 C94.2541031,35.7866401 93.7167521,36 93.0529557,36 C92.3891593,36 91.8439061,35.7787378 91.4171798,35.3362069 C90.9904535,34.8936759 90.7770936,34.356325 90.7770936,33.7241379 L90.7770936,21.112069 C90.7770936,16.9712437 89.0386052,14.9008621 85.5615764,14.9008621 C84.3288116,14.9008621 83.2145986,15.1774398 82.218904,15.7306034 C81.2232093,16.2837671 80.4487918,17.034478 79.8956281,17.9827586 C79.3424644,18.9310392 79.0658867,19.9741322 79.0658867,21.112069 L79.0658867,33.7241379 C79.0658867,34.356325 78.8525268,34.8936759 78.4258005,35.3362069 C77.9990742,35.7787378 77.4538211,36 76.7900246,36 C76.1262282,36 75.5888773,35.7866401 75.1779557,35.3599138 C74.7670341,34.9331875 74.5615764,34.3879344 74.5615764,33.7241379 L74.5615764,21.0646552 C74.5615764,19.1997033 74.1664654,17.7061838 73.3762315,16.5840517 C72.5859977,15.4619197 71.2742292,14.9008621 69.4408867,14.9008621 C67.5759349,14.9008621 66.035002,15.4935286 64.8180419,16.6788793 C63.6010818,17.8642301 62.9926109,19.3261407 62.9926109,21.0646552 L62.9926109,33.7241379 C62.9926109,34.356325 62.7792509,34.8936759 62.3525246,35.3362069 C61.9257984,35.7787378 61.3805452,36 60.7167488,36 C60.0529524,36 59.5156014,35.7866401 59.1046798,35.3599138 C58.6937582,34.9331875 58.4883005,34.3879344 58.4883005,33.7241379 L58.4883005,13.4310345 C58.4883005,12.7988474 58.7016604,12.2614965 59.1283867,11.8189655 C59.555113,11.3764346 60.0845617,11.1551724 60.7167488,11.1551724 C61.3805452,11.1551724 61.9257984,11.3764346 62.3525246,11.8189655 C62.7792509,12.2614965 62.9926109,12.7988474 62.9926109,13.4310345 L62.9926109,15.0905172 C63.814454,13.8577525 64.9128626,12.8225617 66.2878695,11.9849138 C67.6628763,11.1472659 69.1563959,10.7284483 70.7684729,10.7284483 C74.6880328,10.7284483 77.2325475,12.4669366 78.4020936,15.9439655 C79.0974994,14.6163727 80.2512235,13.4152353 81.8633005,12.3405172 C83.4753775,11.2657992 85.182257,10.7284483 86.9839902,10.7284483 Z M123.824507,22.6293103 C123.792898,23.1982787 123.555831,23.6803141 123.113301,24.075431 C122.67077,24.470548 122.149223,24.6681034 121.548645,24.6681034 L104.85899,24.6681034 C105.080256,26.9755863 105.957402,28.8247057 107.490456,30.2155172 C109.023509,31.6063288 110.896335,32.3017241 113.10899,32.3017241 C114.626239,32.3017241 115.858985,32.080462 116.807266,31.637931 C117.755547,31.1954001 118.593182,30.6264403 119.320197,29.9310345 C119.794337,29.6465503 120.252666,29.5043103 120.695197,29.5043103 C121.232556,29.5043103 121.682983,29.6939636 122.04649,30.0732759 C122.409998,30.4525881 122.591749,30.8951124 122.591749,31.4008621 C122.591749,32.0646585 122.27566,32.6652272 121.643473,33.2025862 C120.726802,34.1192575 119.50986,34.893675 117.992611,35.5258621 C116.475362,36.1580491 114.926527,36.4741379 113.346059,36.4741379 C110.785701,36.4741379 108.533569,35.936787 106.589594,34.862069 C104.645618,33.7873509 103.144197,32.2859292 102.085283,30.3577586 C101.02637,28.4295881 100.496921,26.2485754 100.496921,23.8146552 C100.496921,21.1594695 101.042174,18.8283146 102.132697,16.8211207 C103.22322,14.8139267 104.661424,13.2729939 106.447352,12.1982759 C108.233281,11.1235578 110.15352,10.5862069 112.208128,10.5862069 C114.231127,10.5862069 116.127659,11.1077534 117.897783,12.1508621 C119.667907,13.1939707 121.090307,14.6321747 122.165025,16.4655172 C123.239743,18.2988597 123.792898,20.3534369 123.824507,22.6293103 Z M112.208128,14.7586207 C110.438004,14.7586207 108.904974,15.2564605 107.60899,16.2521552 C106.313007,17.2478498 105.459567,18.7887827 105.048645,20.875 L119.035714,20.875 L119.035714,20.4956897 C118.877668,18.8203939 118.126957,17.4454077 116.783559,16.3706897 C115.440162,15.2959716 113.915033,14.7586207 112.208128,14.7586207 Z M149.190887,0.913793106 C149.854683,0.913793106 150.399936,1.12715304 150.826663,1.55387931 C151.253389,1.98060558 151.466749,2.52585875 151.466749,3.18965517 L151.466749,33.7241379 C151.466749,34.356325 151.253389,34.8936759 150.826663,35.3362069 C150.399936,35.7787378 149.854683,36 149.190887,36 C148.52709,36 147.989739,35.7866401 147.578818,35.3599138 C147.167896,34.9331875 146.962438,34.3879344 146.962438,33.7241379 L146.962438,32.3965517 C146.172205,33.5344884 145.057992,34.4985593 143.619766,35.2887931 C142.18154,36.0790269 140.640608,36.4741379 138.996921,36.4741379 C136.847485,36.4741379 134.903539,35.9209825 133.165025,34.8146552 C131.42651,33.7083278 130.051524,32.1673949 129.040025,30.1918103 C128.028525,28.2162258 127.522783,25.995702 127.522783,23.5301724 C127.522783,21.0646428 128.020623,18.8441191 129.016318,16.8685345 C130.012012,14.8929499 131.379096,13.352017 133.117611,12.2456897 C134.856125,11.1393623 136.768462,10.5862069 138.85468,10.5862069 C140.529976,10.5862069 142.078811,10.9339046 143.501232,11.6293103 C144.923652,12.3247161 146.077377,13.2255692 146.962438,14.3318966 L146.962438,3.18965517 C146.962438,2.52585875 147.167896,1.98060558 147.578818,1.55387931 C147.989739,1.12715304 148.52709,0.913793106 149.190887,0.913793106 Z M139.518473,32.3017241 C141.004113,32.3017241 142.323783,31.9224176 143.477525,31.1637931 C144.631266,30.4051686 145.532119,29.3620756 146.180111,28.0344828 C146.828103,26.7068899 147.152094,25.2054681 147.152094,23.5301724 C147.152094,21.886486 146.828103,20.3929665 146.180111,19.049569 C145.532119,17.7061714 144.631266,16.6551762 143.477525,15.8965517 C142.323783,15.1379272 141.004113,14.7586207 139.518473,14.7586207 C138.032833,14.7586207 136.713163,15.1379272 135.559421,15.8965517 C134.40568,16.6551762 133.504827,17.7061714 132.856835,19.049569 C132.208843,20.3929665 131.884852,21.886486 131.884852,23.5301724 C131.884852,25.2054681 132.208843,26.7068899 132.856835,28.0344828 C133.504827,29.3620756 134.40568,30.4051686 135.559421,31.1637931 C136.713163,31.9224176 138.032833,32.3017241 139.518473,32.3017241 Z M162.419335,33.7241379 C162.419335,34.356325 162.205975,34.8936759 161.779249,35.3362069 C161.352523,35.7787378 160.807269,36 160.143473,36 C159.511286,36 158.981837,35.7787378 158.555111,35.3362069 C158.128385,34.8936759 157.915025,34.356325 157.915025,33.7241379 L157.915025,13.1939655 C157.915025,12.5617784 158.128385,12.0244275 158.555111,11.5818966 C158.981837,11.1393656 159.511286,10.9181035 160.143473,10.9181035 C160.807269,10.9181035 161.352523,11.1393656 161.779249,11.5818966 C162.205975,12.0244275 162.419335,12.5617784 162.419335,13.1939655 L162.419335,33.7241379 Z M160.143473,7.78879311 C159.226802,7.78879311 158.570917,7.62284649 158.175801,7.29094828 C157.780684,6.95905007 157.583128,6.42960134 157.583128,5.70258621 L157.583128,4.94396552 C157.583128,4.18534104 157.796488,3.64799009 158.223214,3.33189655 C158.649941,3.01580302 159.305825,2.85775862 160.190887,2.85775862 C161.075949,2.85775862 161.716028,3.02370524 162.111145,3.35560345 C162.506262,3.68750166 162.703818,4.21695039 162.703818,4.94396552 L162.703818,5.70258621 C162.703818,6.46121069 162.49836,6.99856164 162.087438,7.31465517 C161.676517,7.63074871 161.028535,7.78879311 160.143473,7.78879311 Z M189.065887,10.8232759 C189.729683,10.8232759 190.274936,11.0366358 190.701663,11.4633621 C191.128389,11.8900883 191.341749,12.4511459 191.341749,13.1465517 L191.341749,33.7241379 C191.341749,34.356325 191.128389,34.8936759 190.701663,35.3362069 C190.274936,35.7787378 189.729683,36 189.065887,36 C188.40209,36 187.864739,35.7866401 187.453818,35.3599138 C187.042896,34.9331875 186.837438,34.3879344 186.837438,33.7241379 L186.837438,32.4913793 C186.015595,33.5977067 184.89348,34.5380708 183.471059,35.3125 C182.048638,36.0869292 180.515608,36.4741379 178.871921,36.4741379 C176.722485,36.4741379 174.770637,35.9209825 173.016318,34.8146552 C171.261999,33.7083278 169.887012,32.1673949 168.891318,30.1918103 C167.895623,28.2162258 167.397783,25.995702 167.397783,23.5301724 C167.397783,21.0646428 167.895623,18.8441191 168.891318,16.8685345 C169.887012,14.8929499 171.254096,13.352017 172.992611,12.2456897 C174.731125,11.1393623 176.643462,10.5862069 178.72968,10.5862069 C180.404976,10.5862069 181.961713,10.9339046 183.399938,11.6293103 C184.838164,12.3247161 185.983986,13.2097647 186.837438,14.2844828 L186.837438,13.1465517 C186.837438,12.4827553 187.042896,11.9295999 187.453818,11.487069 C187.864739,11.044538 188.40209,10.8232759 189.065887,10.8232759 Z M179.393473,32.3017241 C180.879113,32.3017241 182.198783,31.9224176 183.352525,31.1637931 C184.506266,30.4051686 185.407119,29.3620756 186.055111,28.0344828 C186.703103,26.7068899 187.027094,25.2054681 187.027094,23.5301724 C187.027094,21.886486 186.703103,20.4008687 186.055111,19.0732759 C185.407119,17.745683 184.506266,16.6946878 183.352525,15.9202586 C182.198783,15.1458295 180.879113,14.7586207 179.393473,14.7586207 C177.907833,14.7586207 176.588163,15.1379272 175.434421,15.8965517 C174.28068,16.6551762 173.379827,17.6982692 172.731835,19.0258621 C172.083843,20.3534549 171.759852,21.8548767 171.759852,23.5301724 C171.759852,25.2054681 172.083843,26.7068899 172.731835,28.0344828 C173.379827,29.3620756 174.28068,30.4051686 175.434421,31.1637931 C176.588163,31.9224176 177.907833,32.3017241 179.393473,32.3017241 Z" id="media" fill="#383838"></path>
            <path d="M207.415024,12.1508621 C207.63629,12.1508621 207.841748,12.2456887 208.031404,12.4353448 C208.22106,12.6250009 208.315886,12.8304587 208.315886,13.0517241 C208.315886,13.304599 208.228962,13.5179589 208.055111,13.6918103 C207.881259,13.8656618 207.667899,13.9525862 207.415024,13.9525862 L202.199507,13.9525862 L202.199507,30.8318966 C202.199507,32.2227081 202.444476,33.1472678 202.934421,33.6056034 C203.424366,34.0639391 204.048641,34.2931034 204.807266,34.2931034 C204.933703,34.2931034 205.115454,34.2614946 205.352524,34.1982759 C205.589594,34.1350572 205.78715,34.1034483 205.945197,34.1034483 C206.166462,34.1034483 206.356116,34.1903727 206.514162,34.3642241 C206.672209,34.5380756 206.751231,34.7356311 206.751231,34.9568966 C206.751231,35.2413807 206.561578,35.4863495 206.182266,35.6918103 C205.802953,35.8972711 205.360429,36 204.85468,36 C204.064446,36 203.400659,35.9446845 202.8633,35.8340517 C202.325941,35.723419 201.764884,35.2966991 201.180111,34.5538793 C200.595338,33.8110595 200.302955,32.6020199 200.302955,30.9267241 L200.302955,13.9525862 L196.415024,13.9525862 C196.193759,13.9525862 195.988301,13.8577596 195.798645,13.6681034 C195.608989,13.4784473 195.514162,13.2729896 195.514162,13.0517241 C195.514162,12.7988493 195.601087,12.5854894 195.774938,12.4116379 C195.94879,12.2377865 196.16215,12.1508621 196.415024,12.1508621 L200.302955,12.1508621 L200.302955,6.12931035 C200.302955,5.87643552 200.397782,5.65517336 200.587438,5.46551724 C200.777094,5.27586112 200.998356,5.18103448 201.251231,5.18103448 C201.535715,5.18103448 201.76488,5.27586112 201.938731,5.46551724 C202.112583,5.65517336 202.199507,5.87643552 202.199507,6.12931035 L202.199507,12.1508621 L207.415024,12.1508621 Z M232.971059,12.3405172 C233.255543,12.3405172 233.484707,12.4353439 233.658559,12.625 C233.83241,12.8146561 233.919335,13.0359183 233.919335,13.2887931 L233.919335,35.0517241 C233.919335,35.304599 233.824508,35.5258611 233.634852,35.7155172 C233.445196,35.9051734 233.223934,36 232.971059,36 C232.686575,36 232.45741,35.9051734 232.283559,35.7155172 C232.109707,35.5258611 232.022783,35.304599 232.022783,35.0517241 L232.022783,30.7844828 C231.232549,32.3965598 230.015607,33.7478394 228.371921,34.8383621 C226.728235,35.9288848 224.910724,36.4741379 222.919335,36.4741379 C220.833117,36.4741379 218.952389,35.9288848 217.277093,34.8383621 C215.601798,33.7478394 214.290029,32.2464176 213.341748,30.3340517 C212.393468,28.4216858 211.919335,26.2801843 211.919335,23.9094828 C211.919335,21.5703906 212.40137,19.4604979 213.365455,17.5797414 C214.329541,15.6989849 215.649211,14.229172 217.324507,13.1702586 C218.999803,12.1113453 220.864727,11.5818966 222.919335,11.5818966 C224.973943,11.5818966 226.823062,12.1192475 228.466748,13.1939655 C230.110435,14.2686835 231.295768,15.7068875 232.022783,17.5086207 L232.022783,13.2887931 C232.022783,13.0359183 232.109707,12.8146561 232.283559,12.625 C232.45741,12.4353439 232.686575,12.3405172 232.971059,12.3405172 Z M223.014162,34.6724138 C224.752677,34.6724138 226.325218,34.2061828 227.731835,33.2737069 C229.138451,32.341231 230.236859,31.0531691 231.027093,29.4094828 C231.817327,27.7657964 232.212438,25.9324814 232.212438,23.9094828 C232.212438,21.9813122 231.817327,20.211215 231.027093,18.5991379 C230.236859,16.9870609 229.138451,15.7148035 227.731835,14.7823276 C226.325218,13.8498517 224.752677,13.3836207 223.014162,13.3836207 C221.275648,13.3836207 219.703106,13.8340472 218.29649,14.7349138 C216.889874,15.6357804 215.791465,16.8843311 215.001231,18.4806034 C214.210997,20.0768758 213.815886,21.8864841 213.815886,23.9094828 C213.815886,25.9324814 214.210997,27.7657964 215.001231,29.4094828 C215.791465,31.0531691 216.881971,32.341231 218.272783,33.2737069 C219.663595,34.2061828 221.244038,34.6724138 223.014162,34.6724138 Z M243.686576,35.0517241 C243.686576,35.304599 243.591749,35.5258611 243.402093,35.7155172 C243.212437,35.9051734 242.991175,36 242.7383,36 C242.453816,36 242.224652,35.9051734 242.0508,35.7155172 C241.876949,35.5258611 241.790024,35.304599 241.790024,35.0517241 L241.790024,12.5301724 C241.790024,12.2772976 241.884851,12.0560354 242.074507,11.8663793 C242.264163,11.6767232 242.485425,11.5818966 242.7383,11.5818966 C243.022784,11.5818966 243.251949,11.6767232 243.4258,11.8663793 C243.599652,12.0560354 243.686576,12.2772976 243.686576,12.5301724 L243.686576,35.0517241 Z M242.7383,8.35775862 C242.232551,8.35775862 241.829537,8.21551867 241.529248,7.93103448 C241.22896,7.6465503 241.078817,7.28304819 241.078817,6.84051724 L241.078817,6.4612069 C241.078817,6.01867595 241.236862,5.65517384 241.552955,5.37068966 C241.869049,5.08620548 242.279964,4.94396552 242.785714,4.94396552 C243.228245,4.94396552 243.599649,5.08620548 243.899938,5.37068966 C244.200227,5.65517384 244.350369,6.01867595 244.350369,6.4612069 L244.350369,6.84051724 C244.350369,7.28304819 244.200227,7.6465503 243.899938,7.93103448 C243.599649,8.21551867 243.212441,8.35775862 242.7383,8.35775862 Z M262.320197,11.5818966 C265.133429,11.5818966 267.251224,12.4116296 268.673645,14.0711207 C270.096066,15.7306117 270.807266,17.8879178 270.807266,20.5431034 L270.807266,35.0517241 C270.807266,35.304599 270.712439,35.5258611 270.522783,35.7155172 C270.333127,35.9051734 270.111865,36 269.85899,36 C269.574506,36 269.345341,35.9051734 269.17149,35.7155172 C268.997638,35.5258611 268.910714,35.304599 268.910714,35.0517241 L268.910714,20.7327586 C268.910714,18.5833226 268.349656,16.8211276 267.227524,15.4461207 C266.105392,14.0711138 264.406415,13.3836207 262.130542,13.3836207 C260.73973,13.3836207 259.372646,13.7155139 258.029248,14.3793103 C256.685851,15.0431068 255.587442,15.9439598 254.73399,17.0818966 C253.880537,18.2198333 253.453817,19.4367751 253.453817,20.7327586 L253.453817,35.0517241 C253.453817,35.304599 253.358991,35.5258611 253.169335,35.7155172 C252.979679,35.9051734 252.758416,36 252.505542,36 C252.221057,36 251.991893,35.9051734 251.818042,35.7155172 C251.64419,35.5258611 251.557266,35.304599 251.557266,35.0517241 L251.557266,13.2887931 C251.557266,13.0359183 251.652092,12.8146561 251.841748,12.625 C252.031405,12.4353439 252.252667,12.3405172 252.505542,12.3405172 C252.790026,12.3405172 253.01919,12.4353439 253.193042,12.625 C253.366893,12.8146561 253.453817,13.0359183 253.453817,13.2887931 L253.453817,16.4655172 C254.370489,15.0430963 255.658551,13.8735678 257.318042,12.9568966 C258.977533,12.0402253 260.644901,11.5818966 262.320197,11.5818966 Z" id="tain" fill="#383838"></path>
            <g id="icon" transform="translate(0.338670, 4.240148)" fill="#2ECC71" fill-rule="nonzero">
                <path d="M2.0320197,37.9310345 L22.3522167,37.9310345 C23.4744702,37.9310345 24.3842365,37.0212683 24.3842365,35.8990148 C24.3842365,34.7767613 23.4744702,33.8669951 22.3522167,33.8669951 L2.0320197,33.8669951 C0.90976621,33.8669951 0,34.7767613 0,35.8990148 C0,37.0212683 0.90976621,37.9310345 2.0320197,37.9310345 Z" id="line"></path>
                <path d="M2.0320197,31.1576355 L35.2216749,31.1576355 C36.3439284,31.1576355 37.2536946,30.2478693 37.2536946,29.1256158 C37.2536946,28.0033623 36.3439284,27.0935961 35.2216749,27.0935961 L2.0320197,27.0935961 C0.90976621,27.0935961 0,28.0033623 0,29.1256158 C0,30.2478693 0.90976621,31.1576355 2.0320197,31.1576355 Z" id="line"></path>
                <path d="M2.0320197,24.3842365 L28.4482759,24.3842365 C29.5705294,24.3842365 30.4802956,23.4744702 30.4802956,22.3522167 C30.4802956,21.2299633 29.5705294,20.320197 28.4482759,20.320197 L2.0320197,20.320197 C0.90976621,20.320197 0,21.2299633 0,22.3522167 C0,23.4744702 0.90976621,24.3842365 2.0320197,24.3842365 Z" id="line"></path>
                <path d="M2.0320197,17.6108374 L15.5788177,17.6108374 C16.7010712,17.6108374 17.6108374,16.7010712 17.6108374,15.5788177 C17.6108374,14.4565642 16.7010712,13.546798 15.5788177,13.546798 L2.0320197,13.546798 C0.90976621,13.546798 0,14.4565642 0,15.5788177 C0,16.7010712 0.90976621,17.6108374 2.0320197,17.6108374 Z" id="line"></path>
                <path d="M2.0320197,10.8374384 L32.5123153,10.8374384 C33.6345688,10.8374384 34.544335,9.92767221 34.544335,8.80541872 C34.544335,7.68316523 33.6345688,6.77339901 32.5123153,6.77339901 L2.0320197,6.77339901 C0.90976621,6.77339901 0,7.68316523 0,8.80541872 C0,9.92767221 0.90976621,10.8374384 2.0320197,10.8374384 Z" id="line"></path>
                <path d="M2.0320197,4.06403941 L40.6403941,4.06403941 C41.7626476,4.06403941 42.6724138,3.1542732 42.6724138,2.0320197 C42.6724138,0.90976621 41.7626476,0 40.6403941,0 L2.0320197,0 C0.90976621,0 0,0.90976621 0,2.0320197 C0,3.1542732 0.90976621,4.06403941 2.0320197,4.06403941 Z" id="line"></path>
            </g>
        </g>
    </g>
</svg>